<?xml version="1.0" standalone="no"?>
<!DOCTYPE svg PUBLIC "-//W3C//DTD SVG 20010904//EN"
 "http://www.w3.org/TR/2001/REC-SVG-20010904/DTD/svg10.dtd">
<svg version="1.0" xmlns="http://www.w3.org/2000/svg"
 width="256.000000pt" height="256.000000pt" viewBox="0 0 256.000000 256.000000"
 preserveAspectRatio="xMidYMid meet">
<metadata>
Created by potrace 1.11, written by Peter Selinger 2001-2013
</metadata>
<g transform="translate(0.000000,256.000000) scale(0.100000,-0.100000)"
fill="#000000" stroke="none">
<path d="M1130 2553 c-58 -7 -254 -55 -267 -65 -7 -6 -13 -8 -13 -4 0 4 -19
-3 -42 -15 -24 -12 -45 -22 -48 -22 -8 0 -74 -31 -80 -38 -3 -3 -13 -9 -23
-12 -23 -9 -161 -103 -201 -137 -119 -102 -234 -245 -303 -376 -42 -79 -96
-213 -108 -266 -2 -13 -12 -52 -21 -88 -22 -92 -27 -352 -8 -450 31 -162 63
-258 127 -385 163 -326 484 -576 847 -661 104 -25 147 -29 290 -29 151 0 222
8 325 37 22 6 45 13 50 14 79 20 291 123 350 168 213 165 322 291 417 481 58
115 86 200 124 380 11 52 13 308 3 370 -12 75 -48 220 -65 260 -7 17 -13 33
-14 37 -9 45 -150 288 -171 296 -5 2 -9 8 -9 13 0 18 -133 156 -205 214 -230
183 -514 283 -803 283 -64 -1 -133 -3 -152 -5z"/>
</g>
</svg>
